<?xml version="1.0" ?><svg data-name="Layer 1" id="b6f03615-e21b-4b6b-8187-f0c8dbf96624" viewBox="0 0 750 750" xmlns="http://www.w3.org/2000/svg"><path d="M479.42,226.14c-16.23-18.49-45.57-26.43-83.12-26.43H287.35A15.6,15.6,0,0,0,272,212.87L226.58,500.58a9.36,9.36,0,0,0,9.24,10.81h67.27L320,404.25l-.52,3.35a15.55,15.55,0,0,1,15.35-13.16h32c62.79,0,112-25.5,126.32-99.28.42-2.18,1.11-6.38,1.11-6.38C498.28,261.48,494.18,243,479.42,226.14Z"/><path d="M511.23,302.75c-15.62,72.64-65.43,111.08-144.46,111.08H338.1L316.73,550.29h46.49a13.65,13.65,0,0,0,13.47-11.51l.55-2.89,10.68-67.72.7-3.75a13.64,13.64,0,0,1,13.47-11.51h8.48c54.93,0,97.94-22.31,110.5-86.85C526.11,340.17,523.7,318.45,511.23,302.75Z"/></svg>